<?xml version="1.0" standalone="no"?><!DOCTYPE svg PUBLIC "-//W3C//DTD SVG 1.1//EN" "http://www.w3.org/Graphics/SVG/1.1/DTD/svg11.dtd"><svg t="1603537837478" class="icon" viewBox="0 0 1024 1024" version="1.1" xmlns="http://www.w3.org/2000/svg" p-id="1475" xmlns:xlink="http://www.w3.org/1999/xlink" width="200" height="200"><defs><style type="text/css"></style></defs><path d="M261.12 860.16c0 20.48-17.92 38.4-38.4 38.4s-38.4-17.92-38.4-38.4 17.92-38.4 38.4-38.4 38.4 17.92 38.4 38.4zM839.68 860.16c0 20.48-17.92 38.4-38.4 38.4s-38.4-17.92-38.4-38.4 17.92-38.4 38.4-38.4 38.4 17.92 38.4 38.4z" fill="#53D638" p-id="1476"></path><path d="M798.72 860.16m-158.72 0a158.72 158.72 0 1 0 317.44 0 158.72 158.72 0 1 0-317.44 0Z" fill="#53D638" p-id="1477"></path><path d="M906.24 179.2v517.12c53.76 35.84 87.04 94.72 87.04 163.84v7.68c5.12-2.56 7.68-5.12 12.8-10.24 10.24-10.24 17.92-25.6 17.92-40.96V179.2h-117.76zM604.16 860.16c0-38.4 10.24-71.68 28.16-102.4h-117.76V128c0-15.36 12.8-30.72 30.72-30.72h204.8V5.12H488.96c-23.04 0-92.16 0-92.16 66.56v163.84H245.76c-15.36 2.56-30.72 7.68-40.96 20.48L17.92 448c-10.24 10.24-15.36 25.6-15.36 40.96v386.56h66.56c7.68 79.36 74.24 143.36 156.16 143.36s148.48-64 156.16-143.36h225.28c-2.56-5.12-2.56-10.24-2.56-15.36z m-207.36-102.4h-56.32c-30.72-33.28-71.68-53.76-117.76-53.76-38.4 0-76.8 15.36-104.96 40.96v-230.4l153.6-158.72h125.44v401.92z" fill="#53D638" p-id="1478"></path><path d="M954.88 5.12H558.08c-38.4 0-69.12 30.72-69.12 69.12v629.76c0 38.4 30.72 69.12 69.12 69.12h66.56c33.28-64 97.28-107.52 174.08-107.52 74.24 0 140.8 43.52 174.08 104.96 30.72-7.68 51.2-33.28 51.2-66.56V74.24C1024 35.84 993.28 5.12 954.88 5.12z m-69.12 445.44c0 43.52-17.92 74.24-46.08 104.96-30.72 30.72-71.68 48.64-115.2 48.64-89.6 0-163.84-74.24-163.84-163.84s66.56-163.84 156.16-163.84c15.36 0 28.16 12.8 28.16 28.16S732.16 332.8 716.8 332.8c-61.44 0-104.96 51.2-102.4 112.64 2.56 56.32 48.64 104.96 107.52 107.52 61.44 2.56 112.64-38.4 112.64-99.84 0-15.36 12.8-25.6 28.16-25.6s23.04 7.68 23.04 23.04z m2.56-51.2h-112.64c-7.68 0-12.8-5.12-12.8-12.8v-125.44c71.68 0 133.12 56.32 138.24 125.44 0 7.68-5.12 12.8-12.8 12.8zM209.92 665.6c51.2 0 99.84 20.48 133.12 53.76h30.72V396.8h-102.4l-125.44 122.88v158.72c23.04-10.24 43.52-12.8 64-12.8z" fill="#53D638" p-id="1479"></path><path d="M816.64 332.8c5.12 2.56 10.24 7.68 12.8 12.8h-12.8V332.8" fill="#53D638" p-id="1480"></path><path d="M803.84 312.32v43.52c0 2.56 2.56 5.12 5.12 5.12h43.52c0-25.6-23.04-48.64-48.64-48.64z" fill="#53D638" p-id="1481"></path></svg>