<?xml version="1.0" standalone="no"?><!DOCTYPE svg PUBLIC "-//W3C//DTD SVG 1.1//EN" "http://www.w3.org/Graphics/SVG/1.1/DTD/svg11.dtd"><svg t="1603537938386" class="icon" viewBox="0 0 1024 1024" version="1.1" xmlns="http://www.w3.org/2000/svg" p-id="2108" xmlns:xlink="http://www.w3.org/1999/xlink" width="200" height="200"><defs><style type="text/css"></style></defs><path d="M382.770196 37.647059h-301.176471C36.417255 37.647059 1.28 75.294118 1.28 120.470588v298.666667c0 45.176471 35.137255 82.823529 80.313725 82.823529h298.666667c45.176471 0 82.823529-35.137255 82.82353-80.313725V120.470588c0-45.176471-35.137255-82.823529-80.313726-82.823529zM382.770196 562.196078h-301.176471C36.417255 562.196078 1.28 597.333333 1.28 642.509804v298.666667C1.28 986.352941 36.417255 1024 81.593725 1024h298.666667c45.176471 0 80.313725-35.137255 80.313726-80.313725v-301.176471c2.509804-45.176471-32.627451-80.313725-77.803922-80.313726zM949.985882 180.705882c-5.019608 0-62.745098 27.607843-173.17647 77.803922l20.078431-180.705882c0-5.019608 0-5.019608-5.019608-15.058824 0-5.019608-5.019608-5.019608-15.058823-5.019608h-27.607843c-55.215686 0-102.901961 20.078431-145.568628 55.215686S535.868235 195.764706 525.82902 253.490196c-5.019608 62.745098 5.019608 117.960784 47.686274 165.647059 35.137255 47.686275 87.843137 77.803922 153.098039 82.823529H754.221176c55.215686 0 102.901961-20.078431 145.568628-55.215686 40.156863-35.137255 67.764706-82.823529 77.803921-138.039216 5.019608-35.137255 0-77.803922-15.058823-112.941176-2.509804-7.529412-7.529412-15.058824-12.54902-15.058824z" fill="#1afa29" p-id="2109"></path><path d="M1002.691765 112.941176c-15.058824-27.607843-35.137255-55.215686-62.745098-77.803921-27.607843-20.078431-55.215686-35.137255-87.843138-35.137255-5.019608 0-5.019608 0-15.058823 5.019608l-20.078431 173.17647c0 5.019608 0 5.019608 5.019607 5.019608h10.039216L992.652549 120.470588c5.019608 0 10.039216 0 10.039216-7.529412zM987.632941 592.313725c0-17.568627-15.058824-30.117647-30.117647-30.117647h-401.568627c-17.568627 0-30.117647 15.058824-30.117647 30.117647 0 17.568627 15.058824 30.117647 30.117647 30.117648h401.568627c15.058824 0 30.117647-12.54902 30.117647-30.117648z m-82.823529 200.784314c0-17.568627-15.058824-30.117647-30.117647-30.117647H555.946667c-17.568627 0-30.117647 15.058824-30.117647 30.117647 0 17.568627 15.058824 30.117647 30.117647 30.117647h318.745098c17.568627 0 30.117647-12.54902 30.117647-30.117647z m-175.686275 200.784314c0-17.568627-15.058824-30.117647-30.117647-30.117647h-143.058823c-17.568627 0-30.117647 15.058824-30.117647 30.117647 0 17.568627 15.058824 30.117647 30.117647 30.117647h143.058823c17.568627 0 30.117647-15.058824 30.117647-30.117647z" fill="#1afa29" p-id="2110"></path></svg>