<?xml version="1.0" standalone="no"?><!DOCTYPE svg PUBLIC "-//W3C//DTD SVG 1.1//EN" "http://www.w3.org/Graphics/SVG/1.1/DTD/svg11.dtd"><svg t="1603537972362" class="icon" viewBox="0 0 1024 1024" version="1.1" xmlns="http://www.w3.org/2000/svg" p-id="2350" xmlns:xlink="http://www.w3.org/1999/xlink" width="200" height="200"><defs><style type="text/css"></style></defs><path d="M896 0h-97.28v128c0 38.4-25.6 64-64 64H289.28c-38.4 0-64-25.6-64-64V0H128C76.8 0 33.28 46.08 33.28 97.28v832C33.28 980.48 76.8 1024 128 1024h768c51.2 0 97.28-46.08 97.28-97.28V97.28C993.28 46.08 947.2 0 896 0z m-153.6 878.08H281.6c-25.6 0-46.08-20.48-46.08-38.4 0-20.48 20.48-38.4 46.08-38.4h468.48c25.6 0 46.08 20.48 46.08 38.4-2.56 25.6-28.16 38.4-53.76 38.4z m0-217.6H281.6c-25.6 0-51.2-20.48-51.2-38.4s20.48-38.4 43.52-38.4H742.4c25.6 0 46.08 20.48 46.08 38.4 5.12 17.92-20.48 38.4-46.08 38.4z m0-217.6H281.6c-25.6 0-51.2-20.48-51.2-38.4s25.6-38.4 51.2-38.4h468.48c25.6 0 46.08 20.48 46.08 38.4-2.56 17.92-28.16 38.4-53.76 38.4z" fill="#1afa29" p-id="2351"></path><path d="M320 84.48c0 25.6 20.48 46.08 46.08 46.08h294.4c25.6 0 46.08-20.48 46.08-46.08V0h-384v84.48z" fill="#1afa29" p-id="2352"></path></svg>